<svg width="14" height="14" viewBox="0 0 14 14" fill="none" xmlns="http://www.w3.org/2000/svg">
<path d="M13.4053 7.14829C13.4053 6.59882 13.3596 6.19786 13.2609 5.78204H6.83942V8.26207H10.6087C10.5327 8.87839 10.1223 9.80656 9.2104 10.4303L9.19761 10.5133L11.228 12.0501L11.3686 12.0639C12.6605 10.8981 13.4053 9.18282 13.4053 7.14829Z" fill="#4285F4"/>
<path d="M6.83938 13.6829C8.686 13.6829 10.2362 13.0889 11.3686 12.0642L9.21036 10.4306C8.63282 10.8241 7.85767 11.0989 6.83938 11.0989C5.03075 11.0989 3.4957 9.93313 2.94849 8.32184L2.86828 8.32849L0.757101 9.92494L0.729492 9.99993C1.85418 12.183 4.16439 13.6829 6.83938 13.6829Z" fill="#34A853"/>
<path d="M2.94852 8.32179C2.80413 7.90597 2.72057 7.46042 2.72057 7.00007C2.72057 6.53968 2.80413 6.09417 2.94092 5.67836L2.9371 5.5898L0.799459 3.96771L0.72952 4.00022C0.26598 4.90612 0 5.92341 0 7.00007C0 8.07674 0.26598 9.09398 0.72952 9.99988L2.94852 8.32179Z" fill="#FBBC05"/>
<path d="M6.83939 2.90138C8.12365 2.90138 8.98996 3.44342 9.48394 3.8964L11.4142 2.05491C10.2287 0.978239 8.686 0.317383 6.83939 0.317383C4.16439 0.317383 1.85418 1.81729 0.729492 4.00031L2.94089 5.67846C3.4957 4.06717 5.03075 2.90138 6.83939 2.90138Z" fill="#EB4335"/>
</svg>
