<svg width="20" height="20" viewBox="0 0 20 20" fill="none" xmlns="http://www.w3.org/2000/svg">
<g id="Outline 24px / heart">
<path id="Vector" fill-rule="evenodd" clip-rule="evenodd" d="M5.87476 1.66666C4.4378 1.66666 3.05971 2.23748 2.04363 3.25356C1.02755 4.26964 0.456726 5.64773 0.456726 7.08468C0.456726 8.52164 1.02755 9.89973 2.04363 10.9158L9.41069 18.2829C9.45137 18.3235 9.49521 18.3591 9.54142 18.3897C9.8649 18.6032 10.3045 18.5676 10.5893 18.2829L17.9563 10.9158C18.9724 9.89973 19.5432 8.52164 19.5432 7.08468C19.5432 5.64773 18.9724 4.26964 17.9563 3.25356C16.9402 2.23748 15.5621 1.66666 14.1252 1.66666C12.6882 1.66666 11.3102 2.23748 10.2941 3.25356L9.99998 3.54766L9.70588 3.25356C8.6898 2.23748 7.31171 1.66666 5.87476 1.66666ZM10.5893 5.31551C10.3045 5.60029 9.8649 5.63588 9.54142 5.4223C9.49521 5.39179 9.45137 5.3562 9.41069 5.31551L8.52731 4.43213C7.82381 3.72863 6.86965 3.33341 5.87476 3.33341C4.87986 3.33341 3.9257 3.72863 3.2222 4.43213C2.5187 5.13563 2.12348 6.08979 2.12348 7.08468C2.12348 8.07958 2.5187 9.03374 3.2222 9.73724L9.99998 16.515L16.7778 9.73724C17.4813 9.03374 17.8765 8.07958 17.8765 7.08468C17.8765 6.08979 17.4813 5.13563 16.7778 4.43213C16.0743 3.72863 15.1201 3.33341 14.1252 3.33341C13.1303 3.33341 12.1761 3.72863 11.4726 4.43213L10.5893 5.31551Z" fill="#CBCBD4"/>
</g>
</svg>
