<svg width="16" height="16" viewBox="0 0 16 16" fill="none" xmlns="http://www.w3.org/2000/svg">
<g id="Outline 24px / heart">
<path id="Vector" fill-rule="evenodd" clip-rule="evenodd" d="M4.69978 1.33337C3.55022 1.33337 2.44774 1.79004 1.63488 2.6029C0.822018 3.41576 0.365356 4.51824 0.365356 5.6678C0.365356 6.81736 0.822018 7.91983 1.63488 8.7327L7.52852 14.6263C7.56107 14.6589 7.59614 14.6874 7.63311 14.7118C7.89189 14.8826 8.24357 14.8542 8.47138 14.6263L14.365 8.7327C15.1779 7.91983 15.6346 6.81736 15.6346 5.6678C15.6346 4.51824 15.1779 3.41576 14.365 2.6029C13.5522 1.79004 12.4497 1.33337 11.3001 1.33337C10.1506 1.33337 9.0481 1.79004 8.23523 2.6029L7.99996 2.83817L7.76468 2.6029C6.95182 1.79004 5.84934 1.33337 4.69978 1.33337ZM8.47138 4.25246C8.24357 4.48028 7.89189 4.50876 7.63311 4.33789C7.59614 4.31348 7.56107 4.28501 7.52852 4.25246L6.82182 3.54576C6.25902 2.98296 5.4957 2.66678 4.69978 2.66678C3.90386 2.66678 3.14054 2.98296 2.57774 3.54576C2.01494 4.10856 1.69876 4.87188 1.69876 5.6678C1.69876 6.46372 2.01494 7.22704 2.57774 7.78984L7.99996 13.2121L13.4222 7.78984C13.985 7.22704 14.3012 6.46372 14.3012 5.6678C14.3012 4.87188 13.985 4.10856 13.4222 3.54576C12.8594 2.98296 12.0961 2.66678 11.3001 2.66678C10.5042 2.66678 9.74089 2.98296 9.17809 3.54576L8.47138 4.25246Z" fill="#3A3A3A"/>
</g>
</svg>
