<svg width="20" height="20" viewBox="0 0 20 20" fill="none" xmlns="http://www.w3.org/2000/svg">
<g id="Outline 24px / home">
<path id="Vector" fill-rule="evenodd" clip-rule="evenodd" d="M10.5116 1.00888C10.2107 0.77483 9.78933 0.77483 9.4884 1.00888L1.9884 6.84222C1.78541 7.0001 1.66669 7.24285 1.66669 7.50001V16.6667C1.66669 17.3297 1.93008 17.9656 2.39892 18.4344C2.86776 18.9033 3.50365 19.1667 4.16669 19.1667H15.8334C16.4964 19.1667 17.1323 18.9033 17.6011 18.4344C18.07 17.9656 18.3334 17.3297 18.3334 16.6667V7.50001C18.3334 7.24285 18.2146 7.0001 18.0116 6.84222L10.5116 1.00888ZM13.3334 17.5H15.8334C16.0544 17.5 16.2663 17.4122 16.4226 17.2559C16.5789 17.0996 16.6667 16.8877 16.6667 16.6667V7.90758L10 2.72239L3.33335 7.90758V16.6667C3.33335 16.8877 3.42115 17.0996 3.57743 17.2559C3.73371 17.4122 3.94567 17.5 4.16669 17.5H6.66669V10C6.66669 9.53977 7.03978 9.16668 7.50002 9.16668H12.5C12.9603 9.16668 13.3334 9.53977 13.3334 10V17.5ZM8.33335 17.5V10.8333H11.6667V17.5H8.33335Z" fill="#CBCBD4"/>
</g>
</svg>
