<svg width="20" height="20" viewBox="0 0 20 20" fill="none" xmlns="http://www.w3.org/2000/svg">
<g id="Outline 24px / search">
<path id="Vector" fill-rule="evenodd" clip-rule="evenodd" d="M13.4633 14.5239C12.3085 15.4476 10.8438 16 9.25 16C5.52208 16 2.5 12.9779 2.5 9.25C2.5 5.52208 5.52208 2.5 9.25 2.5C12.9779 2.5 16 5.52208 16 9.25C16 10.8438 15.4476 12.3085 14.5239 13.4633L17.2803 16.2197C17.5732 16.5126 17.5732 16.9874 17.2803 17.2803C16.9874 17.5732 16.5126 17.5732 16.2197 17.2803L13.4633 14.5239ZM4 9.25C4 6.3505 6.35051 4 9.25 4C12.1495 4 14.5 6.3505 14.5 9.25C14.5 10.6645 13.9406 11.9483 13.0311 12.8923C13.0054 12.912 12.9807 12.9337 12.9572 12.9572C12.9337 12.9807 12.912 13.0054 12.8923 13.0311C11.9483 13.9406 10.6645 14.5 9.25 14.5C6.35051 14.5 4 12.1495 4 9.25Z" fill="#3A3A3A"/>
</g>
</svg>
