<svg width="10" height="10" viewBox="0 0 10 10" fill="none" xmlns="http://www.w3.org/2000/svg">
<g id="Filled 16px / star" clip-path="url(#clip0_1380_2608)">
<path id="Vector" d="M5.5605 0.556734C5.45521 0.343419 5.23795 0.208374 5.00006 0.208374C4.76217 0.208374 4.54491 0.343419 4.43962 0.556734L3.2974 2.87075L0.743 3.24411C0.50765 3.27851 0.312224 3.44352 0.238863 3.66977C0.165502 3.89603 0.226923 4.14431 0.397309 4.31027L2.24515 6.11006L1.80905 8.65272C1.76884 8.88721 1.86524 9.1242 2.05773 9.26403C2.25021 9.40386 2.50539 9.42228 2.71597 9.31155L5.00006 8.11036L7.28415 9.31155C7.49472 9.42228 7.74991 9.40386 7.94239 9.26403C8.13488 9.1242 8.23128 8.88721 8.19106 8.65272L7.75497 6.11006L9.60281 4.31027C9.7732 4.14431 9.83462 3.89603 9.76126 3.66977C9.68789 3.44352 9.49247 3.27851 9.25712 3.24411L6.70272 2.87075L5.5605 0.556734Z" fill="#FFE202"/>
</g>
<defs>
<clipPath id="clip0_1380_2608">
<rect width="10" height="10" fill="white"/>
</clipPath>
</defs>
</svg>
