<svg width="20" height="20" viewBox="0 0 20 20" fill="none" xmlns="http://www.w3.org/2000/svg">
<g id="Outline 24px / x">
<path id="Vector" d="M15.5893 5.58922C15.9147 5.26378 15.9147 4.73614 15.5893 4.4107C15.2638 4.08527 14.7362 4.08527 14.4108 4.4107L10 8.82145L5.58928 4.4107C5.26384 4.08527 4.7362 4.08527 4.41076 4.4107C4.08533 4.73614 4.08533 5.26378 4.41076 5.58922L8.82151 9.99996L4.41076 14.4107C4.08533 14.7361 4.08533 15.2638 4.41076 15.5892C4.7362 15.9147 5.26384 15.9147 5.58928 15.5892L10 11.1785L14.4108 15.5892C14.7362 15.9147 15.2638 15.9147 15.5893 15.5892C15.9147 15.2638 15.9147 14.7361 15.5893 14.4107L11.1785 9.99996L15.5893 5.58922Z" fill="#3A3A3A"/>
</g>
</svg>
